<svg xmlns="http://www.w3.org/2000/svg" viewBox="0 0 16 16" width="16" height="16">
  <!-- Chat bubble outline as a filled path (evenodd) -->
  <path fill-rule="evenodd" clip-rule="evenodd" d="M8 1C4.13401 1 1 3.91015 1 7.5C1 8.87895 1.45892 10.1581 2.24151 11.2057L1.14645 14.4909 C1.00295 14.9221 1.41126 15.3093 1.83858 15.1384L5.20129 13.7933 C6.08272 14.246 7.02701 14.5 8 14.5 C11.866 14.5 15 11.5899 15 7.5C15 3.91015 11.866 1 8 1 Z M3 7.5C3 4.88909 5.23858 3 8 3C10.7614 3 13 4.88909 13 7.5C13 10.1109 10.7614 12 8 12C7.30691 12 6.64969 11.8654 6.04656 11.6241 L3.68412 12.5691 L4.43799 10.3075 C3.53509 9.53924 3 8.57143 3 7.5 Z" fill="currentColor"/>
  <!-- Central AI Spark representing chat intelligence -->
  <path d="M8 4.5 L8.4 6 L9.5 6.5 L8.4 7 L8 8.5 L7.6 7 L6.5 6.5 L7.6 6 Z" fill="currentColor"/>
</svg>