<svg xmlns="http://www.w3.org/2000/svg" viewBox="0 0 16 16" width="16" height="16">
  <!-- Lens outer border (diameter 10, from 1 to 11) minus inner cut (diameter 8, from 2 to 10) -->
  <path fill-rule="evenodd" clip-rule="evenodd" d="M6 1C3.23858 1 1 3.23858 1 6C1 8.76142 3.23858 11 6 11C7.16012 11 8.2246 10.6033 9.07107 9.93579L13.2929 14.1576 C13.6834 14.5481 14.3166 14.5481 14.7071 14.1576 C15.0976 13.7671 15.0976 13.1339 14.7071 12.7434 L10.5146 8.55093 C10.825 7.78181 11 6.91712 11 6C11 3.23858 8.76142 1 6 1 Z M3 6C3 4.34315 4.34315 3 6 3C7.65685 3 9 4.34315 9 6C9 7.65685 7.65685 9 6 9C4.34315 9 3 7.65685 3 6 Z" fill="currentColor"/>
  <!-- Context layers inside the lens (beautifully aligned pill shapes) -->
  <path d="M4 4.5 C4 4.22386 4.22386 4 4.5 4 H7.5 C7.77614 4 8 4.22386 8 4.5 C8 4.77614 7.77614 5 7.5 5 H4.5 C4.22386 5 4 4.77614 4 4.5 Z" fill="currentColor"/>
  <path d="M4.5 6.5 C4.5 6.22386 4.72386 6 5 6 H7 C7.27614 6 7.5 6.22386 7.5 6.5 C7.5 6.77614 7.27614 7 7 7 H5 C4.72386 7 4.5 6.77614 4.5 6.5 Z" fill="currentColor"/>
  <!-- Glowing AI Spark (4-pointed star) at top-right of lens -->
  <path d="M12.5 1 L13 3 L15 3.5 L13 4 L12.5 6 L12 4 L10 3.5 L12 3 Z" fill="currentColor"/>
</svg>