<svg xmlns="http://www.w3.org/2000/svg" xmlns:xlink="http://www.w3.org/1999/xlink" width="500" zoomAndPan="magnify" viewBox="0 0 375 374.999991" height="500" preserveAspectRatio="xMidYMid meet" version="1.0"><defs><clipPath id="7a089f1fac"><path d="M 49.097656 48.203125 L 252.035156 48.203125 L 252.035156 251.140625 L 49.097656 251.140625 Z M 49.097656 48.203125 " clip-rule="nonzero"/></clipPath><clipPath id="49356747d7"><path d="M 150.566406 48.203125 C 94.527344 48.203125 49.097656 93.632812 49.097656 149.671875 C 49.097656 205.710938 94.527344 251.140625 150.566406 251.140625 C 206.605469 251.140625 252.035156 205.710938 252.035156 149.671875 C 252.035156 93.632812 206.605469 48.203125 150.566406 48.203125 Z M 150.566406 48.203125 " clip-rule="nonzero"/></clipPath><clipPath id="4286c5c4b1"><path d="M 0.0976562 0.203125 L 203.035156 0.203125 L 203.035156 203.140625 L 0.0976562 203.140625 Z M 0.0976562 0.203125 " clip-rule="nonzero"/></clipPath><clipPath id="283825f4d5"><path d="M 101.566406 0.203125 C 45.527344 0.203125 0.0976562 45.632812 0.0976562 101.671875 C 0.0976562 157.710938 45.527344 203.140625 101.566406 203.140625 C 157.605469 203.140625 203.035156 157.710938 203.035156 101.671875 C 203.035156 45.632812 157.605469 0.203125 101.566406 0.203125 Z M 101.566406 0.203125 " clip-rule="nonzero"/></clipPath><clipPath id="0f021c4469"><rect x="0" width="204" y="0" height="204"/></clipPath><clipPath id="7a249a27a6"><path d="M 90.324219 87.710938 L 210.808594 87.710938 L 210.808594 211.960938 L 90.324219 211.960938 Z M 90.324219 87.710938 " clip-rule="nonzero"/></clipPath><clipPath id="773b3de0d2"><path d="M 150.566406 87.710938 C 117.296875 87.710938 90.324219 115.449219 90.324219 149.671875 C 90.324219 183.890625 117.296875 211.632812 150.566406 211.632812 C 183.839844 211.632812 210.808594 183.890625 210.808594 149.671875 C 210.808594 115.449219 183.839844 87.710938 150.566406 87.710938 Z M 150.566406 87.710938 " clip-rule="nonzero"/></clipPath><clipPath id="49b77c39a9"><path d="M 0.324219 0.710938 L 120.808594 0.710938 L 120.808594 124.679688 L 0.324219 124.679688 Z M 0.324219 0.710938 " clip-rule="nonzero"/></clipPath><clipPath id="50295033c1"><path d="M 60.566406 0.710938 C 27.296875 0.710938 0.324219 28.449219 0.324219 62.671875 C 0.324219 96.890625 27.296875 124.632812 60.566406 124.632812 C 93.839844 124.632812 120.808594 96.890625 120.808594 62.671875 C 120.808594 28.449219 93.839844 0.710938 60.566406 0.710938 Z M 60.566406 0.710938 " clip-rule="nonzero"/></clipPath><clipPath id="7337f93510"><rect x="0" width="121" y="0" height="125"/></clipPath><clipPath id="4828ad4a35"><path d="M 198 191 L 347 191 L 347 341 L 198 341 Z M 198 191 " clip-rule="nonzero"/></clipPath><clipPath id="a693e188f8"><path d="M 223.253906 180.875 L 357.480469 315.101562 L 321.722656 350.855469 L 187.5 216.632812 Z M 223.253906 180.875 " clip-rule="nonzero"/></clipPath><clipPath id="d503d99158"><path d="M 338.914062 296.535156 C 349.132812 306.757812 349.414062 323.046875 339.542969 332.917969 C 329.667969 342.792969 313.378906 342.511719 303.15625 332.292969 L 206.003906 235.140625 C 195.785156 224.917969 195.503906 208.628906 205.375 198.753906 C 215.25 188.882812 231.539062 189.164062 241.761719 199.382812 Z M 338.914062 296.535156 " clip-rule="nonzero"/></clipPath><clipPath id="ddc94330d1"><path d="M 0 0 L 149 0 L 149 150 L 0 150 Z M 0 0 " clip-rule="nonzero"/></clipPath><clipPath id="b760a6efa0"><path d="M 25.253906 -10.125 L 159.480469 124.101562 L 123.722656 159.855469 L -10.5 25.632812 Z M 25.253906 -10.125 " clip-rule="nonzero"/></clipPath><clipPath id="340bf9dfdc"><path d="M 140.914062 105.535156 C 151.132812 115.757812 151.414062 132.046875 141.542969 141.917969 C 131.667969 151.792969 115.378906 151.511719 105.15625 141.292969 L 8.003906 44.140625 C -2.214844 33.917969 -2.496094 17.628906 7.375 7.753906 C 17.25 -2.117188 33.539062 -1.835938 43.761719 8.382812 Z M 140.914062 105.535156 " clip-rule="nonzero"/></clipPath><clipPath id="6e14b60541"><rect x="0" width="149" y="0" height="150"/></clipPath><clipPath id="96d2b8bc7d"><path d="M 108.796875 118.640625 L 192.347656 118.640625 L 192.347656 131.828125 L 108.796875 131.828125 Z M 108.796875 118.640625 " clip-rule="nonzero"/></clipPath><clipPath id="3d86d912c6"><path d="M 114.796875 118.640625 L 186.335938 118.640625 C 187.929688 118.640625 189.453125 119.273438 190.578125 120.398438 C 191.703125 121.523438 192.335938 123.050781 192.335938 124.640625 L 192.335938 125.828125 C 192.335938 127.417969 191.703125 128.945312 190.578125 130.070312 C 189.453125 131.195312 187.929688 131.828125 186.335938 131.828125 L 114.796875 131.828125 C 113.207031 131.828125 111.679688 131.195312 110.554688 130.070312 C 109.429688 128.945312 108.796875 127.417969 108.796875 125.828125 L 108.796875 124.640625 C 108.796875 123.050781 109.429688 121.523438 110.554688 120.398438 C 111.679688 119.273438 113.207031 118.640625 114.796875 118.640625 Z M 114.796875 118.640625 " clip-rule="nonzero"/></clipPath><clipPath id="ffc0a3c0f0"><path d="M 0.796875 0.640625 L 84.347656 0.640625 L 84.347656 13.828125 L 0.796875 13.828125 Z M 0.796875 0.640625 " clip-rule="nonzero"/></clipPath><clipPath id="ce92717a45"><path d="M 6.796875 0.640625 L 78.335938 0.640625 C 79.929688 0.640625 81.453125 1.273438 82.578125 2.398438 C 83.703125 3.523438 84.335938 5.050781 84.335938 6.640625 L 84.335938 7.828125 C 84.335938 9.417969 83.703125 10.945312 82.578125 12.070312 C 81.453125 13.195312 79.929688 13.828125 78.335938 13.828125 L 6.796875 13.828125 C 5.207031 13.828125 3.679688 13.195312 2.554688 12.070312 C 1.429688 10.945312 0.796875 9.417969 0.796875 7.828125 L 0.796875 6.640625 C 0.796875 5.050781 1.429688 3.523438 2.554688 2.398438 C 3.679688 1.273438 5.207031 0.640625 6.796875 0.640625 Z M 6.796875 0.640625 " clip-rule="nonzero"/></clipPath><clipPath id="af668604c2"><rect x="0" width="85" y="0" height="14"/></clipPath><clipPath id="55414bf879"><path d="M 108.796875 143.078125 L 192.347656 143.078125 L 192.347656 156.265625 L 108.796875 156.265625 Z M 108.796875 143.078125 " clip-rule="nonzero"/></clipPath><clipPath id="0f06a2c9b8"><path d="M 114.796875 143.078125 L 186.335938 143.078125 C 187.929688 143.078125 189.453125 143.710938 190.578125 144.835938 C 191.703125 145.960938 192.335938 147.484375 192.335938 149.078125 L 192.335938 150.265625 C 192.335938 151.855469 191.703125 153.382812 190.578125 154.507812 C 189.453125 155.632812 187.929688 156.265625 186.335938 156.265625 L 114.796875 156.265625 C 113.207031 156.265625 111.679688 155.632812 110.554688 154.507812 C 109.429688 153.382812 108.796875 151.855469 108.796875 150.265625 L 108.796875 149.078125 C 108.796875 147.484375 109.429688 145.960938 110.554688 144.835938 C 111.679688 143.710938 113.207031 143.078125 114.796875 143.078125 Z M 114.796875 143.078125 " clip-rule="nonzero"/></clipPath><clipPath id="1340bbc0df"><path d="M 0.796875 0.078125 L 84.347656 0.078125 L 84.347656 13.265625 L 0.796875 13.265625 Z M 0.796875 0.078125 " clip-rule="nonzero"/></clipPath><clipPath id="41c50903ef"><path d="M 6.796875 0.078125 L 78.335938 0.078125 C 79.929688 0.078125 81.453125 0.710938 82.578125 1.835938 C 83.703125 2.960938 84.335938 4.484375 84.335938 6.078125 L 84.335938 7.265625 C 84.335938 8.855469 83.703125 10.382812 82.578125 11.507812 C 81.453125 12.632812 79.929688 13.265625 78.335938 13.265625 L 6.796875 13.265625 C 5.207031 13.265625 3.679688 12.632812 2.554688 11.507812 C 1.429688 10.382812 0.796875 8.855469 0.796875 7.265625 L 0.796875 6.078125 C 0.796875 4.484375 1.429688 2.960938 2.554688 1.835938 C 3.679688 0.710938 5.207031 0.078125 6.796875 0.078125 Z M 6.796875 0.078125 " clip-rule="nonzero"/></clipPath><clipPath id="66693fdebb"><rect x="0" width="85" y="0" height="14"/></clipPath><clipPath id="938a992200"><path d="M 108.796875 167.515625 L 192.347656 167.515625 L 192.347656 180.699219 L 108.796875 180.699219 Z M 108.796875 167.515625 " clip-rule="nonzero"/></clipPath><clipPath id="280ae4ff1a"><path d="M 114.796875 167.515625 L 186.335938 167.515625 C 187.929688 167.515625 189.453125 168.144531 190.578125 169.269531 C 191.703125 170.398438 192.335938 171.921875 192.335938 173.515625 L 192.335938 174.699219 C 192.335938 176.292969 191.703125 177.816406 190.578125 178.941406 C 189.453125 180.070312 187.929688 180.699219 186.335938 180.699219 L 114.796875 180.699219 C 113.207031 180.699219 111.679688 180.070312 110.554688 178.941406 C 109.429688 177.816406 108.796875 176.292969 108.796875 174.699219 L 108.796875 173.515625 C 108.796875 171.921875 109.429688 170.398438 110.554688 169.269531 C 111.679688 168.144531 113.207031 167.515625 114.796875 167.515625 Z M 114.796875 167.515625 " clip-rule="nonzero"/></clipPath><clipPath id="23289ae181"><path d="M 0.796875 0.515625 L 84.347656 0.515625 L 84.347656 13.699219 L 0.796875 13.699219 Z M 0.796875 0.515625 " clip-rule="nonzero"/></clipPath><clipPath id="91997fd07a"><path d="M 6.796875 0.515625 L 78.335938 0.515625 C 79.929688 0.515625 81.453125 1.144531 82.578125 2.269531 C 83.703125 3.398438 84.335938 4.921875 84.335938 6.515625 L 84.335938 7.699219 C 84.335938 9.292969 83.703125 10.816406 82.578125 11.941406 C 81.453125 13.070312 79.929688 13.699219 78.335938 13.699219 L 6.796875 13.699219 C 5.207031 13.699219 3.679688 13.070312 2.554688 11.941406 C 1.429688 10.816406 0.796875 9.292969 0.796875 7.699219 L 0.796875 6.515625 C 0.796875 4.921875 1.429688 3.398438 2.554688 2.269531 C 3.679688 1.144531 5.207031 0.515625 6.796875 0.515625 Z M 6.796875 0.515625 " clip-rule="nonzero"/></clipPath><clipPath id="60df8b5e5a"><rect x="0" width="85" y="0" height="14"/></clipPath></defs><g clip-path="url(#7a089f1fac)"><g clip-path="url(#49356747d7)"><g transform="matrix(1, 0, 0, 1, 49, 48)"><g clip-path="url(#0f021c4469)"><g clip-path="url(#4286c5c4b1)"><g clip-path="url(#283825f4d5)"><path fill="#222222" d="M 0.0976562 0.203125 L 203.035156 0.203125 L 203.035156 203.140625 L 0.0976562 203.140625 Z M 0.0976562 0.203125 " fill-opacity="1" fill-rule="nonzero"/></g></g></g></g></g></g><g clip-path="url(#7a249a27a6)"><g clip-path="url(#773b3de0d2)"><g transform="matrix(1, 0, 0, 1, 90, 87)"><g clip-path="url(#7337f93510)"><g clip-path="url(#49b77c39a9)"><g clip-path="url(#50295033c1)"><path fill="#ffffff" d="M 0.324219 0.710938 L 120.808594 0.710938 L 120.808594 124.488281 L 0.324219 124.488281 Z M 0.324219 0.710938 " fill-opacity="1" fill-rule="nonzero"/></g></g></g></g></g></g><g clip-path="url(#4828ad4a35)"><g clip-path="url(#a693e188f8)"><g clip-path="url(#d503d99158)"><g transform="matrix(1, 0, 0, 1, 198, 191)"><g clip-path="url(#6e14b60541)"><g clip-path="url(#ddc94330d1)"><g clip-path="url(#b760a6efa0)"><g clip-path="url(#340bf9dfdc)"><path fill="#222222" d="M 25.253906 -10.125 L 159.480469 124.101562 L 123.722656 159.855469 L -10.5 25.632812 Z M 25.253906 -10.125 " fill-opacity="1" fill-rule="nonzero"/></g></g></g></g></g></g></g></g><g clip-path="url(#96d2b8bc7d)"><g clip-path="url(#3d86d912c6)"><g transform="matrix(1, 0, 0, 1, 108, 118)"><g clip-path="url(#af668604c2)"><g clip-path="url(#ffc0a3c0f0)"><g clip-path="url(#ce92717a45)"><path fill="#222222" d="M 0.796875 0.640625 L 84.347656 0.640625 L 84.347656 13.828125 L 0.796875 13.828125 Z M 0.796875 0.640625 " fill-opacity="1" fill-rule="nonzero"/></g></g></g></g></g></g><g clip-path="url(#55414bf879)"><g clip-path="url(#0f06a2c9b8)"><g transform="matrix(1, 0, 0, 1, 108, 143)"><g clip-path="url(#66693fdebb)"><g clip-path="url(#1340bbc0df)"><g clip-path="url(#41c50903ef)"><path fill="#222222" d="M 0.796875 0.078125 L 84.347656 0.078125 L 84.347656 13.265625 L 0.796875 13.265625 Z M 0.796875 0.078125 " fill-opacity="1" fill-rule="nonzero"/></g></g></g></g></g></g><g clip-path="url(#938a992200)"><g clip-path="url(#280ae4ff1a)"><g transform="matrix(1, 0, 0, 1, 108, 167)"><g clip-path="url(#60df8b5e5a)"><g clip-path="url(#23289ae181)"><g clip-path="url(#91997fd07a)"><path fill="#222222" d="M 0.796875 0.515625 L 84.347656 0.515625 L 84.347656 13.699219 L 0.796875 13.699219 Z M 0.796875 0.515625 " fill-opacity="1" fill-rule="nonzero"/></g></g></g></g></g></g></svg>