<svg xmlns="http://www.w3.org/2000/svg" viewBox="0 0 16 16" width="16" height="16">
  <!-- Connection node representing synced state, using pure filled paths -->
  <!-- Main stem (vertical bar on left, 2px wide, x=2 to 4) -->
  <path d="M3 1 C2.44772 1 2 1.44772 2 2 V13 C2 13.5523 2.44772 14 3 14 C3.55228 14 4 13.5523 4 13 V2 C4 1.44772 3.55228 1 3 1 Z" fill="currentColor"/>
  <!-- Branch 1 horizontal split (x=4 to 8, y=5 to 7) -->
  <path d="M4 6 C4 5.44772 4.44772 5 5 5 H8 C8.55228 5 9 5.44772 9 6 C9 6.55228 8.55228 7 8 7 H5 C4.44772 7 4 6.55228 4 6 Z" fill="currentColor"/>
  <!-- Branch 2 horizontal split (x=4 to 8, y=9 to 11) -->
  <path d="M4 10 C4 9.44772 4.44772 9 5 9 H8 C8.55228 9 9 9.44772 9 10 C9 10.5523 8.55228 11 8 11 H5 C4.44772 11 4 10.5523 4 10 Z" fill="currentColor"/>
  <!-- Connection nodes (circular dots at branch ends) -->
  <circle cx="10" cy="6" r="1.5" fill="currentColor"/>
  <circle cx="10" cy="10" r="1.5" fill="currentColor"/>
  <!-- Target insight spark on the top-right stem -->
  <path d="M12.5 1 L13 3 L15 3.5 L13 4 L12.5 6 L12 4 L10 3.5 L12 3 Z" fill="currentColor"/>
</svg>